<svg id="Group_1275" data-name="Group 1275" xmlns="http://www.w3.org/2000/svg" xmlns:xlink="http://www.w3.org/1999/xlink" width="65" height="65" viewBox="0 0 65 65">
  <defs>
    <clipPath id="clip-path">
      <rect id="Rectangle_1878" data-name="Rectangle 1878" width="65" height="65" fill="none"/>
    </clipPath>
  </defs>
  <g id="Group_1275-2" data-name="Group 1275" clip-path="url(#clip-path)">
    <path id="Path_7246" data-name="Path 7246" d="M32.5,65A32.5,32.5,0,1,1,65,32.5,32.5,32.5,0,0,1,32.5,65" fill="#e7984a"/>
    <path id="Path_7247" data-name="Path 7247" d="M54.847,43.644a6.3,6.3,0,0,0,4.673-4.819c1.069-3.987-2.069-8.262-6.458-9.439l-.429-.115L54.205,23.4l-3.649-.979-1.575,5.873-2.858-.765,1.442-5.909-3.623-.971L42.37,26.521l-7.4-1.983-1.215,4.536,3.417.916a1.561,1.561,0,0,1,1.03,1.949l-4.369,16.3a1.562,1.562,0,0,1-1.867,1.173l-2.526-.677-2.074,4.176,7.4,1.984L33.193,60.77l3.754,1.007L38.521,55.9l2.858.765-1.573,5.873,3.649.978,1.573-5.873c5.418,1.451,11.888.679,13.634-5.837a6.964,6.964,0,0,0-3.814-8.167M44.9,32.061l4.153,1.113c2.2.588,3.1,2.282,2.656,4s-2.034,2.742-4.3,2.135l-4.154-1.112Zm-.213,20.762L39.7,51.486l2.209-8.408,5.032,1.349c2.91.779,4.294,2.951,3.641,5.475s-2.891,3.725-5.891,2.921" transform="translate(-12.583 -9.495)" fill="#fff"/>
  </g>
</svg>
