<?xml version="1.0" encoding="utf-8"?>
<!-- Generator: Adobe Illustrator 21.1.0, SVG Export Plug-In . SVG Version: 6.00 Build 0)  -->
<svg version="1.1" id="Layer_1" xmlns="http://www.w3.org/2000/svg" xmlns:xlink="http://www.w3.org/1999/xlink" x="0px" y="0px"
	 viewBox="-15 0 185 200" xml:space="preserve">
<style type="text/css">
	.st0{fill:#F1615B;}
	.st1{fill:#E14B5B;}
	.st2{fill:#65D4FE;}
	.st3{fill:#863556;}
	.st4{fill:#C44358;}
	.st5{fill:#A93A57;}
	.st6{fill:#662F54;}
	.st7{fill:#FFF;}
</style>
<polygon class="st0" points="144.4,100.1 144.6,100.1 173.5,82.9 173.5,50.1 86.8,0 0,50.1 0,150.3 86.8,200.4 173.5,150.3
	173.5,116.9 "/>
<polygon class="st1" points="144.4,100.1 144.6,100.1 173.5,82.9 173.5,50.1 173.5,50.1 173.5,50.1 86.8,100.2 0,50.1 0,150.3
	86.8,200.4 173.5,150.3 173.5,116.9 "/>
<polygon class="st2" points="144.6,133.6 144.6,66.8 86.8,33.4 28.9,66.8 28.9,133.6 86.8,167 "/>
<polygon class="st3" points="57.8,183.7 28.9,167 28.9,127.3 57.8,127.3 "/>
<polygon class="st4" points="144.4,100.1 144.6,100.1 173.5,82.9 173.5,50.1 173.5,50.1 173.5,50.1 86.8,100.2 86.8,200.4
	86.8,200.4 173.5,150.3 173.5,116.9 "/>
<polygon class="st0" points="144.4,133.7 173.5,116.9 144.4,100.1 115.3,116.9 "/>
<g>
	<polygon class="st5" points="144.6,133.6 144.6,66.8 86.8,33.4 28.9,66.8 28.9,133.6 86.8,167 	"/>
	<polygon class="st3" points="144.6,66.8 144.6,66.8 86.8,100.2 28.9,66.8 28.9,133.6 86.8,167 144.6,133.6 144.6,66.8 	"/>
	<polygon class="st6" points="144.6,66.8 144.6,66.8 86.8,100.2 86.8,167 86.8,167 86.8,167 144.6,133.6 144.6,66.8 	"/>
</g>
<polygon class="st5" points="57.8,116.9 86.8,133.6 115.7,116.9 86.8,100.2 "/>
<polygon class="st3" points="57.8,116.9 57.8,116.9 86.8,100.2 115.7,116.9 115.7,83.5 86.8,66.7 57.8,83.5 57.8,116.9 "/>
<polygon class="st6" points="57.8,116.9 57.8,116.9 86.8,100.2 86.8,66.7 86.8,66.7 86.8,66.7 57.8,83.5 57.8,116.9 "/>

</svg>