<svg xmlns="http://www.w3.org/2000/svg" xmlns:xlink="http://www.w3.org/1999/xlink" version="1.1" id="Layer_1" x="0px" y="0px" viewBox="0 0 1201.7 200.4" style="enable-background:new 0 0 1201.7 200.4;" xml:space="preserve">
<style type="text/css">
	.st0{fill:#F1615B;}
	.st1{fill:#E14B5B;}
	.st2{fill:#65D4FE;}
	.st3{fill:#863556;}
	.st4{fill:#C44358;}
	.st5{fill:#A93A57;}
	.st6{fill:#662F54;}
	.st7{fill:#1D1D1B;}
</style>
<polygon class="st0" points="144.4,100.1 144.6,100.1 173.5,82.9 173.5,50.1 86.8,0 0,50.1 0,150.3 86.8,200.4 173.5,150.3  173.5,116.9 "/>
<polygon class="st1" points="144.4,100.1 144.6,100.1 173.5,82.9 173.5,50.1 173.5,50.1 173.5,50.1 86.8,100.2 0,50.1 0,150.3  86.8,200.4 173.5,150.3 173.5,116.9 "/>
<polygon class="st2" points="144.6,133.6 144.6,66.8 86.8,33.4 28.9,66.8 28.9,133.6 86.8,167 "/>
<polygon class="st3" points="57.8,183.7 28.9,167 28.9,127.3 57.8,127.3 "/>
<polygon class="st4" points="144.4,100.1 144.6,100.1 173.5,82.9 173.5,50.1 173.5,50.1 173.5,50.1 86.8,100.2 86.8,200.4  86.8,200.4 173.5,150.3 173.5,116.9 "/>
<polygon class="st0" points="144.4,133.7 173.5,116.9 144.4,100.1 115.3,116.9 "/>
<g>
	<polygon class="st5" points="144.6,133.6 144.6,66.8 86.8,33.4 28.9,66.8 28.9,133.6 86.8,167  "/>
	<polygon class="st3" points="144.6,66.8 144.6,66.8 86.8,100.2 28.9,66.8 28.9,133.6 86.8,167 144.6,133.6 144.6,66.8  "/>
	<polygon class="st6" points="144.6,66.8 144.6,66.8 86.8,100.2 86.8,167 86.8,167 86.8,167 144.6,133.6 144.6,66.8  "/>
</g>
<polygon class="st5" points="57.8,116.9 86.8,133.6 115.7,116.9 86.8,100.2 "/>
<polygon class="st3" points="57.8,116.9 57.8,116.9 86.8,100.2 115.7,116.9 115.7,83.5 86.8,66.7 57.8,83.5 57.8,116.9 "/>
<polygon class="st6" points="57.8,116.9 57.8,116.9 86.8,100.2 86.8,66.7 86.8,66.7 86.8,66.7 57.8,83.5 57.8,116.9 "/>
<g>
	<path class="st7" d="M214.5,153.6c-0.7-0.7-1.1-1.7-1.1-2.7V46.7c0-1.2,0.3-2.1,1-2.9c0.7-0.7,1.6-1.1,2.8-1.1h42.9   c12.9,0,23,3,30.4,9.1c7.4,6.1,11,14.9,11,26.6c0,11.5-3.7,20.2-11,26.2c-7.4,5.9-17.5,8.9-30.4,8.9h-23.5v37.4   c0,1.2-0.4,2.1-1.1,2.8c-0.7,0.7-1.7,1-2.9,1h-15.4C216.1,154.7,215.2,154.3,214.5,153.6z M259.3,95.5c6.2,0,10.9-1.5,14.2-4.4   c3.3-2.9,4.9-7.2,4.9-12.9c0-5.5-1.6-9.9-4.7-13c-3.1-3.1-7.9-4.6-14.3-4.6h-23v34.9H259.3z"/>
	<path class="st7" d="M323,153c-4.5-2.2-8.1-5.1-10.7-8.9c-2.6-3.7-3.9-7.8-3.9-12.3c0-7.3,2.9-13.1,8.8-17.6   c5.9-4.5,13.9-7.5,24.2-9.1l21.9-3.2v-3.4c0-4.6-1.2-8.1-3.5-10.4c-2.3-2.3-6.1-3.5-11.2-3.5c-3.5,0-6.3,0.6-8.5,1.9   c-2.1,1.3-3.9,2.6-5.2,3.9c-1.3,1.3-2.2,2.2-2.6,2.6c-0.4,1.3-1.2,1.9-2.4,1.9h-12.5c-1,0-1.8-0.3-2.5-1c-0.7-0.6-1-1.5-1-2.6   c0.1-2.7,1.4-5.7,3.9-9c2.5-3.4,6.4-6.3,11.6-8.8c5.2-2.5,11.7-3.8,19.4-3.8c12.6,0,21.8,2.8,27.5,8.5c5.8,5.7,8.6,13.1,8.6,22.2   v50.2c0,1.1-0.3,2-1,2.7c-0.7,0.7-1.6,1.1-2.8,1.1h-13.3c-1.1,0-2-0.4-2.7-1.1c-0.7-0.7-1.1-1.7-1.1-2.7v-6.2   c-2.3,3.4-5.7,6.2-9.9,8.4c-4.3,2.2-9.6,3.3-16,3.3C332.6,156.3,327.6,155.2,323,153z M357.8,135.2c3.7-3.8,5.6-9.4,5.6-16.6v-3.2   l-16,2.6c-12.3,1.9-18.4,6-18.4,12.3c0,3.4,1.4,6.1,4.2,7.9c2.8,1.9,6.2,2.8,10.2,2.8C349.3,140.9,354.1,139,357.8,135.2z"/>
	<path class="st7" d="M414.9,184.1c-0.7-0.6-1-1.4-1-2.2c0-0.7,0.2-1.6,0.6-2.6l12.6-29.6l-30.7-72.5c-0.4-1-0.6-1.7-0.6-2.2   c0.1-1,0.5-1.8,1.1-2.5c0.6-0.7,1.4-1,2.4-1h13.3c1.9,0,3.3,1,4.2,3l21.3,52.2l21.6-52.2c1.1-2,2.6-3,4.5-3h13c1,0,1.8,0.3,2.4,1   c0.6,0.6,1,1.4,1,2.2c0,0.7-0.2,1.6-0.6,2.6L434.5,182c-0.9,2-2.3,3-4.5,3h-12.8C416.3,185.1,415.6,184.8,414.9,184.1z"/>
	<path class="st7" d="M508.5,144.7c-7.4-7.7-11.4-18.3-11.9-31.8c-0.1-2.9-0.2-7.6-0.2-14.1c0-6.6,0.1-11.4,0.2-14.4   c0.5-13.4,4.5-24,11.9-31.8c7.4-7.7,18.2-11.6,32.4-11.6c9.5,0,17.5,1.7,24.2,5c6.6,3.4,11.6,7.8,15,13.2   c3.4,5.4,5.2,11.3,5.5,17.4c0,1-0.3,1.7-1,2.3c-0.7,0.6-1.5,0.9-2.5,0.9h-8c-1.1,0-1.9-0.3-2.6-0.8c-0.6-0.5-1.1-1.4-1.4-2.7   c-1.8-8.2-5.1-14-9.8-17.3c-4.7-3.3-11.2-5-19.3-5c-18.6,0-28.2,10.3-29,31c-0.1,2.9-0.2,7.3-0.2,13.3c0,6,0.1,10.5,0.2,13.6   c0.7,20.6,10.4,30.9,29,30.9c8,0,14.4-1.7,19.2-5c4.8-3.3,8.1-9,9.9-17.1c0.3-1.3,0.8-2.2,1.4-2.7c0.6-0.5,1.5-0.8,2.6-0.8h8   c1,0,1.8,0.3,2.5,0.9c0.7,0.6,1,1.4,1,2.3c-0.3,6.2-2.2,12-5.5,17.4c-3.4,5.4-8.3,9.8-15,13.2c-6.6,3.4-14.7,5-24.2,5   C526.7,156.3,515.9,152.4,508.5,144.7z"/>
	<path class="st7" d="M608.6,146.4c-6.3-6.6-9.7-15.4-10.2-26.4l-0.2-6.9l0.2-6.9c0.4-11,3.9-19.8,10.3-26.4   c6.5-6.6,15.4-9.9,27-9.9c11.5,0,20.5,3.3,27,9.9c6.5,6.6,9.9,15.4,10.3,26.4c0.2,2.3,0.3,4.6,0.3,6.9c0,2.2-0.1,4.5-0.3,6.9   c-0.4,11-3.8,19.8-10.2,26.4c-6.3,6.6-15.4,9.9-27.1,9.9C624,156.3,615,153,608.6,146.4z M652,137.8c4-4.3,6.2-10.5,6.5-18.6   c0.1-1.1,0.2-3.1,0.2-6.1c0-3-0.1-5-0.2-6.1c-0.3-8.1-2.5-14.3-6.5-18.6s-9.4-6.5-16.2-6.5c-6.8,0-12.2,2.2-16.2,6.5   s-6.2,10.5-6.5,18.6l-0.2,6.1l0.2,6.1c0.3,8.1,2.5,14.3,6.5,18.6c4,4.3,9.4,6.5,16.2,6.5C642.6,144.3,648,142.1,652,137.8z"/>
	<path class="st7" d="M691.4,153.6c-0.7-0.7-1-1.6-1-2.6V75.2c0-1.1,0.3-1.9,1-2.6c0.7-0.7,1.6-1,2.6-1h6.9c1.2,0,2.1,0.3,2.7,1   c0.6,0.6,1,1.5,1,2.7v7c3.2-3.9,6.9-7,11.1-9.1c4.2-2.1,9.5-3.2,15.8-3.2c10.2,0,18.2,3.3,23.8,9.8c5.7,6.6,8.5,15.2,8.5,26V151   c0,1.1-0.3,1.9-1,2.6c-0.7,0.7-1.6,1-2.6,1h-7.4c-1.1,0-1.9-0.3-2.6-1c-0.7-0.7-1-1.6-1-2.6v-44.3c0-7.7-1.9-13.7-5.6-17.9   c-3.7-4.3-9.1-6.4-16-6.4c-6.8,0-12.3,2.2-16.3,6.5c-4.1,4.3-6.1,10.3-6.1,17.8V151c0,1.1-0.3,1.9-1,2.6c-0.7,0.7-1.6,1-2.6,1H694   C692.9,154.7,692.1,154.3,691.4,153.6z"/>
	<path class="st7" d="M793.6,152.7c-5.1-2.4-8.8-5.1-11.3-8.2c-2.5-3.1-3.7-5.7-3.7-7.7c0-1.1,0.4-1.9,1.1-2.5   c0.7-0.6,1.5-0.9,2.4-0.9h6.7c0.6,0,1.1,0.1,1.5,0.3c0.4,0.2,0.9,0.7,1.5,1.4c2.5,3,5.2,5.3,8.2,7c3,1.7,7.1,2.6,12.2,2.6   c5.8,0,10.4-1.1,13.8-3.2c3.5-2.1,5.2-5.2,5.2-9.3c0-2.7-0.7-4.8-2.2-6.4c-1.5-1.6-4-3-7.4-4.3c-3.5-1.3-8.6-2.7-15.4-4.2   c-9.3-2-15.8-5-19.7-8.8s-5.8-8.8-5.8-14.9c0-3.9,1.2-7.8,3.5-11.4c2.3-3.7,5.8-6.7,10.5-9c4.6-2.3,10.2-3.4,16.6-3.4   c6.7,0,12.5,1.1,17.2,3.4c4.7,2.2,8.3,4.9,10.7,7.8c2.4,3,3.6,5.5,3.6,7.5c0,1-0.3,1.8-1,2.4c-0.7,0.6-1.5,1-2.5,1h-6.1   c-1.5,0-2.6-0.6-3.2-1.8c-1.8-2-3.3-3.6-4.6-4.7c-1.2-1.1-3-2.1-5.4-2.9c-2.3-0.8-5.3-1.2-8.8-1.2c-5.2,0-9.2,1.1-12,3.3   c-2.8,2.2-4.2,5.1-4.2,8.7c0,2.2,0.6,4.1,1.8,5.7c1.2,1.5,3.4,3,6.7,4.3c3.3,1.3,8.2,2.7,14.7,4.1c10.1,2.1,17.3,5.2,21.5,9.1   c4.2,3.9,6.3,9,6.3,15.2c0,4.6-1.3,8.7-3.9,12.5c-2.6,3.7-6.5,6.7-11.7,8.8c-5.2,2.1-11.3,3.2-18.5,3.2   C804.9,156.3,798.7,155.1,793.6,152.7z"/>
	<path class="st7" d="M869,126.7V83.8h-12.6c-1.1,0-1.9-0.3-2.6-1c-0.6-0.6-1-1.5-1-2.6v-5.1c0-1.1,0.3-1.9,1-2.6   c0.6-0.7,1.5-1,2.6-1H869V44.8c0-1.1,0.3-1.9,1-2.6c0.6-0.7,1.5-1,2.6-1h7c1.1,0,1.9,0.3,2.6,1c0.7,0.7,1,1.6,1,2.6v26.7h19.8   c1.1,0,1.9,0.3,2.6,1c0.7,0.7,1,1.6,1,2.6v5.1c0,1.1-0.3,1.9-1,2.6c-0.7,0.6-1.6,1-2.6,1h-19.8v41.8c0,5.4,0.9,9.5,2.6,12.3   c1.8,2.8,4.8,4.2,9,4.2h9.8c1.1,0,1.9,0.3,2.6,1c0.6,0.7,1,1.6,1,2.6v5.3c0,1.1-0.3,1.9-1,2.6c-0.6,0.7-1.5,1-2.6,1h-10.9   C877.3,154.7,869,145.4,869,126.7z"/>
	<path class="st7" d="M921.8,153.6c-0.7-0.7-1-1.6-1-2.6V75.3c0-1.1,0.3-2,1-2.7c0.7-0.7,1.6-1.1,2.6-1.1h6.7c1.2,0,2.1,0.3,2.8,1   c0.7,0.7,1,1.6,1,2.8v7c4.4-7.3,11.8-10.9,22.2-10.9h6.2c1.2,0,2.1,0.3,2.7,1c0.6,0.6,1,1.5,1,2.7v5.9c0,1.1-0.3,1.9-1,2.6   c-0.6,0.7-1.5,1-2.7,1h-9.1c-5.9,0-10.5,1.7-13.8,5.1c-3.4,3.4-5,8.1-5,13.9V151c0,1.1-0.4,1.9-1.1,2.6c-0.7,0.7-1.7,1-2.7,1h-7.2   C923.3,154.7,922.4,154.3,921.8,153.6z"/>
	<path class="st7" d="M985.2,146.4c-5.5-6.6-8.3-15.3-8.3-26.2V75.2c0-1.1,0.3-1.9,1-2.6c0.7-0.7,1.6-1,2.6-1h7.4   c1.1,0,1.9,0.3,2.6,1c0.7,0.7,1,1.6,1,2.6v44.3c0,16.2,7,24.3,21.1,24.3c6.8,0,12.2-2.2,16.2-6.5s6-10.3,6-17.8V75.2   c0-1.1,0.3-1.9,1-2.6c0.7-0.7,1.6-1,2.6-1h7.4c1.1,0,1.9,0.3,2.6,1c0.7,0.7,1,1.6,1,2.6V151c0,1.1-0.3,1.9-1,2.6   c-0.7,0.7-1.6,1-2.6,1h-6.9c-1.1,0-1.9-0.3-2.6-1c-0.7-0.7-1-1.6-1-2.6v-7.2c-3.1,4.2-6.7,7.3-10.9,9.4s-9.4,3.1-15.8,3.1   C998.6,156.3,990.7,153,985.2,146.4z"/>
	<path class="st7" d="M1077,146.6c-6.4-6.5-9.8-15.5-10.1-27.1l-0.2-6.4l0.2-6.4c0.3-11.6,3.7-20.7,10.1-27.1   c6.4-6.5,15.3-9.7,26.7-9.7c7.7,0,14.2,1.4,19.4,4.1c5.3,2.7,9.2,6.1,11.8,10.2c2.6,4.1,4,8.1,4.2,12.2c0.1,1-0.2,1.8-1,2.6   c-0.8,0.7-1.7,1.1-2.6,1.1h-7c-1.1,0-1.9-0.2-2.4-0.7c-0.5-0.5-1.1-1.4-1.6-2.6c-1.9-5.2-4.6-8.9-7.9-11.1   c-3.4-2.2-7.6-3.3-12.7-3.3c-6.7,0-12.1,2.1-16,6.2c-3.9,4.2-6.1,10.5-6.4,19l-0.2,5.6l0.2,5.6c0.3,8.5,2.5,14.9,6.4,19   c3.9,4.2,9.3,6.2,16,6.2c5.2,0,9.5-1.1,12.8-3.3c3.3-2.2,5.9-5.9,7.8-11.1c0.5-1.3,1.1-2.2,1.6-2.6c0.5-0.5,1.3-0.7,2.4-0.7h7   c1,0,1.8,0.4,2.6,1.1c0.8,0.7,1.1,1.6,1,2.6c-0.2,3.9-1.6,7.9-4.2,12c-2.6,4.1-6.6,7.5-11.8,10.2c-5.3,2.8-11.8,4.2-19.4,4.2   C1092.3,156.3,1083.4,153.1,1077,146.6z"/>
	<path class="st7" d="M1162.5,126.7V83.8h-12.6c-1.1,0-1.9-0.3-2.6-1c-0.6-0.6-1-1.5-1-2.6v-5.1c0-1.1,0.3-1.9,1-2.6   c0.6-0.7,1.5-1,2.6-1h12.6V44.8c0-1.1,0.3-1.9,1-2.6c0.6-0.7,1.5-1,2.6-1h7c1.1,0,1.9,0.3,2.6,1c0.7,0.7,1,1.6,1,2.6v26.7h19.8   c1.1,0,1.9,0.3,2.6,1c0.7,0.7,1,1.6,1,2.6v5.1c0,1.1-0.3,1.9-1,2.6c-0.7,0.6-1.6,1-2.6,1h-19.8v41.8c0,5.4,0.9,9.5,2.6,12.3   c1.8,2.8,4.8,4.2,9,4.2h9.8c1.1,0,1.9,0.3,2.6,1c0.6,0.7,1,1.6,1,2.6v5.3c0,1.1-0.3,1.9-1,2.6c-0.6,0.7-1.5,1-2.6,1h-10.9   C1170.7,154.7,1162.5,145.4,1162.5,126.7z"/>
</g>
</svg>